<svg xmlns="http://www.w3.org/2000/svg" width="380" height="160" viewBox="0 0 380 160">
<rect x="0" y="0" width="380" height="160" rx="24" fill="#0B1437"/>
<line x1="80" y1="80" x2="111.00" y2="80.00" stroke="#4D82FF" stroke-width="2.6" stroke-linecap="round"/>
<line x1="80" y1="80" x2="95.50" y2="106.85" stroke="#4D82FF" stroke-width="2.6" stroke-linecap="round"/>
<line x1="80" y1="80" x2="64.50" y2="106.85" stroke="#4D82FF" stroke-width="2.6" stroke-linecap="round"/>
<line x1="80" y1="80" x2="49.00" y2="80.00" stroke="#4D82FF" stroke-width="2.6" stroke-linecap="round"/>
<line x1="80" y1="80" x2="64.50" y2="53.15" stroke="#4D82FF" stroke-width="2.6" stroke-linecap="round"/>
<line x1="80" y1="80" x2="95.50" y2="53.15" stroke="#4D82FF" stroke-width="2.6" stroke-linecap="round"/>
<polygon points="140.00,80.00 110.00,131.96 50.00,131.96 20.00,80.00 50.00,28.04 110.00,28.04" fill="none" stroke="#4D82FF" stroke-width="3.6" stroke-linejoin="round"/>
<circle cx="111.00" cy="80.00" r="5.2" fill="#F5F8FF"/>
<circle cx="95.50" cy="106.85" r="5.2" fill="#F5F8FF"/>
<circle cx="64.50" cy="106.85" r="5.2" fill="#F5F8FF"/>
<circle cx="49.00" cy="80.00" r="5.2" fill="#F5F8FF"/>
<circle cx="64.50" cy="53.15" r="5.2" fill="#F5F8FF"/>
<circle cx="95.50" cy="53.15" r="5.2" fill="#F5F8FF"/>
<circle cx="80" cy="80" r="9.5" fill="#16E0D0"/>
<text x="188" y="106" font-family="Arial, Helvetica, sans-serif" font-size="76" font-weight="600" letter-spacing="1" fill="#F5F8FF">HPC</text>
</svg>